<svg xmlns="http://www.w3.org/2000/svg" viewBox="0 0 64 64">
  <defs>
    <linearGradient id="g" x1="0%" y1="0%" x2="100%" y2="100%">
      <stop offset="0%" stop-color="#667eea"/>
      <stop offset="100%" stop-color="#764ba2"/>
    </linearGradient>
  </defs>
  <rect width="64" height="64" rx="14" fill="url(#g)"/>
  <g stroke="#fff" stroke-width="2.5" stroke-linecap="round" fill="none">
    <line x1="18" y1="26" x2="22" y2="26"/>
    <line x1="18" y1="32" x2="22" y2="32"/>
    <line x1="18" y1="38" x2="22" y2="38"/>
    <line x1="42" y1="26" x2="46" y2="26"/>
    <line x1="42" y1="32" x2="46" y2="32"/>
    <line x1="42" y1="38" x2="46" y2="38"/>
    <line x1="26" y1="18" x2="26" y2="22"/>
    <line x1="32" y1="18" x2="32" y2="22"/>
    <line x1="38" y1="18" x2="38" y2="22"/>
    <line x1="26" y1="42" x2="26" y2="46"/>
    <line x1="32" y1="42" x2="32" y2="46"/>
    <line x1="38" y1="42" x2="38" y2="46"/>
    <rect x="22" y="22" width="20" height="20" rx="3"/>
  </g>
  <rect x="29" y="29" width="6" height="6" rx="1" fill="#fff"/>
</svg>
